<mxfile host="app.diagrams.net" modified="2024-04-22T14:15:23.791Z" agent="Mozilla/5.0 (X11; Linux x86_64) AppleWebKit/537.36 (KHTML, like Gecko) Chrome/124.0.0.0 Safari/537.36" etag="2" version="14.6.13" type="device">
    <diagram id="SequenceDiagram" name="Page-1">
        <mxGraphModel dx="1082" dy="610" grid="1" gridSize="10" guides="1" tooltips="1" connect="1" arrows="1" fold="1" page="1" pageScale="1" pageWidth="827" pageHeight="1169" math="0" shadow="0">
            <root>
                <mxCell id="0"/>
                <mxCell id="1" parent="0"/>
                <mxCell id="2" value="Vue.js App" style="shape=process;whiteSpace=wrap;html=1;fillColor=#DAE8FC;" vertex="1" parent="1">
                    <mxGeometry x="180" y="50" width="100" height="40" as="geometry"/>
                </mxCell>
                <mxCell id="3" value="Firebase" style="shape=process;whiteSpace=wrap;html=1;fillColor=#FFE6CC;" vertex="1" parent="1">
                    <mxGeometry x="180" y="150" width="100" height="40" as="geometry"/>
                </mxCell>
                <mxCell id="4" value="AWS Cognito" style="shape=process;whiteSpace=wrap;html=1;fillColor=#E1D5E7;" vertex="1" parent="1">
                    <mxGeometry x="180" y="250" width="100" height="40" as="geometry"/>
                </mxCell>
                <mxCell id="5" value="AWS Lambda" style="shape=process;whiteSpace=wrap;html=1;fillColor=#D5E8D4;" vertex="1" parent="1">
                    <mxGeometry x="180" y="350" width="100" height="40" as="geometry"/>
                </mxCell>
                <mxCell id="6" value="Initialize &amp; Login" style="edgeStyle=orthogonalEdgeStyle;endArrow=block;endFill=1;html=1;" edge="1" parent="1" source="2" target="3">
                    <mxGeometry relative="1" as="geometry"/>
                </mxCell>
                <mxCell id="7" value="Return Token" style="edgeStyle=orthogonalEdgeStyle;endArrow=block;endFill=1;html=1;" edge="1" parent="1" source="3" target="4">
                    <mxGeometry relative="1" as="geometry"/>
                </mxCell>
                <mxCell id="8" value="Fetch AWS Credentials" style="edgeStyle=orthogonalEdgeStyle;endArrow=block;endFill=1;html=1;" edge="1" parent="1" source="4" target="5">
                    <mxGeometry relative="1" as="geometry"/>
                </mxCell>
                <mxCell id="9" value="Invoke Function" style="edgeStyle=orthogonalEdgeStyle;endArrow=block;endFill=1;html=1;" edge="1" parent="1" source="5">
                    <mxGeometry relative="1" as="geometry"/>
                </mxCell>
            </root>
        </mxGraphModel>
    </diagram>
</mxfile>
